<svg xmlns="http://www.w3.org/2000/svg" xmlns:xlink="http://www.w3.org/1999/xlink" viewBox="0 0 1920 1080"><defs><style>.cls-1,.cls-2{fill:#fff;}.cls-1,.cls-9{stroke:#6d56a0;stroke-miterlimit:10;}.cls-3,.cls-9{fill:none;}.cls-4{isolation:isolate;}.cls-5{fill:#6d56a0;}.cls-6{clip-path:url(#clip-path);}.cls-7{opacity:0.27;mix-blend-mode:luminosity;}.cls-8{clip-path:url(#clip-path-2);}.cls-10{clip-path:url(#clip-path-3);}.cls-11{fill:#f8b154;}.cls-12{fill:#f08621;}.cls-13{fill:#4ac1e0;}.cls-14{fill:#00acd8;}.cls-15{clip-path:url(#clip-path-4);}.cls-16{fill:#4fb8a7;}</style><clipPath id="clip-path"><path id="SVGID" class="cls-1" d="M583.79,338.66a379.47,379.47,0,0,0-55.72,167.55v62.54c16.94,197.52,194,349.11,419.52,356l116.7,1.2,195-.85c71.43,0,130.25-49,130.25-114V537.61A380.38,380.38,0,0,0,1353,374a387,387,0,0,0-51.37-80.64,399.08,399.08,0,0,0-38-40.13c-76.45-70.08-181.89-112.8-300-112.8-164.65,0-305.21,78.92-379.74,198.27"/></clipPath><clipPath id="clip-path-2"><rect class="cls-2" x="-11.65" y="-13.68" width="1819.91" height="1234.75"/></clipPath><clipPath id="clip-path-3"><rect class="cls-3" y="0.07" width="326" height="734.4"/></clipPath><clipPath id="clip-path-4"><rect class="cls-3" x="1424.51" y="0.88" width="495.49" height="733.57"/></clipPath></defs><g class="cls-4"><g id="Capa_1" data-name="Capa 1"><rect class="cls-5" x="0.5" y="0.5" width="1919" height="1079"/><path class="cls-5" d="M1919,1V1079H1V1H1919m1-1H0V1080H1920V0Z"/><path id="SVGID-2" data-name="SVGID" class="cls-2" d="M583.79,338.66a379.47,379.47,0,0,0-55.72,167.55v62.54c16.94,197.52,194,349.11,419.52,356l116.7,1.2,195-.85c71.43,0,130.25-49,130.25-114V537.61A380.38,380.38,0,0,0,1353,374a387,387,0,0,0-51.37-80.64,399.08,399.08,0,0,0-38-40.13c-76.45-70.08-181.89-112.8-300-112.8-164.65,0-305.21,78.92-379.74,198.27"/><g class="cls-6"><g class="cls-7"><rect class="cls-2" x="-11.65" y="-13.68" width="1819.91" height="1234.75"/><g class="cls-8"><rect class="cls-2" x="-11.65" y="-13.68" width="1819.91" height="1234.75"/></g></g></g><path id="SVGID-3" data-name="SVGID" class="cls-9" d="M583.79,338.66a379.47,379.47,0,0,0-55.72,167.55v62.54c16.94,197.52,194,349.11,419.52,356l116.7,1.2,195-.85c71.43,0,130.25-49,130.25-114V537.61A380.38,380.38,0,0,0,1353,374a387,387,0,0,0-51.37-80.64,399.08,399.08,0,0,0-38-40.13c-76.45-70.08-181.89-112.8-300-112.8-164.65,0-305.21,78.92-379.74,198.27"/><g class="cls-10"><path class="cls-11" d="M-396.58,122.78c-.38.58-.79,1.11-1.16,1.68a73.83,73.83,0,0,0-13,61.15,83.24,83.24,0,0,0,38.84,52.9c15.18,13.33,36.67,19.28,58.65,16,24.62-3.66,45.63-18,56.67-38.54C-214.58,152.12-144.84,114-69.69,114c124.41,0,225.61,99.6,225.61,222,0,122.59-103.32,226.17-225.61,226.17-79.27,0-149.45-41.06-192.71-112.7A76.65,76.65,0,0,0-307.09,412a86.59,86.59,0,0,0-66,5.42,80.14,80.14,0,0,0-42,48.89c-7.2,23.41-3.78,48.79,9.59,71.54,67.79,122.52,193.29,195.65,335.81,195.65C148.49,733.51,326,555.22,326,336.06c0-106.77-43.17-203.59-112.91-274.52L-396,121.93c-.19.29-.41.56-.6.85"/><path class="cls-12" d="M191.41,40.91c-6-5.23-12.17-10.22-18.46-15.09A395,395,0,0,0-69.69-57.24C-183.82-57.24-287.38-9-361.75,76.82A427,427,0,0,0-396,121.92L213.09,61.54c-7-7.11-14.16-14.06-21.68-20.63"/><path class="cls-13" d="M80.81,81.29a97.15,97.15,0,0,1,1.78,18c0,.9-.11,1.76-.14,2.64C81,156.32,36.81,200.12-17.48,200.12a100.2,100.2,0,0,1-86.93-50.34l-.35-.57c-.78-1.3-1.65-2.52-2.5-3.74a68.58,68.58,0,0,0-14.32-15.08,68.58,68.58,0,0,0-74.77-5.8l-1.15.67a68.66,68.66,0,0,0-19.86,18.47,70.19,70.19,0,0,0-13,36.31,67.36,67.36,0,0,0,8.87,38.21c42.17,72.67,120.35,117.82,204,117.82,129.16,0,234.24-106.19,234.24-236.73,0-5.37-.24-10.69-.59-16a233.79,233.79,0,0,0-2.78-23.54L78.9,73.16c.74,2.67,1.4,5.38,1.91,8.13"/><path class="cls-14" d="M-215-29a68.84,68.84,0,0,0-9.8,51.1,67.12,67.12,0,0,0,29.12,43.39l.69.44c31.47,19.31,73.25,10,93.28-21A99.14,99.14,0,0,1-17.48-1.43c45.27,0,84.6,32.19,96.38,74.59L213.39,59.82a241,241,0,0,0-5.22-23.69C180.73-63.79,90-137.38-17.48-137.38-98.13-137.38-172-96.8-215-29"/></g><g class="cls-15"><path class="cls-13" d="M2340.62,533.2c.37-.57.78-1.09,1.15-1.66a72.74,72.74,0,0,0,12.86-60.38,82.24,82.24,0,0,0-38.45-52.23c-15-13.16-36.3-19-58.07-15.81-24.37,3.62-45.17,17.78-56.09,38.05-41.57,63.06-110.61,100.67-185,100.67-123.15,0-223.34-98.35-223.34-219.23,0-121,102.28-223.31,223.34-223.31,78.48,0,148,40.54,190.77,111.27A75.85,75.85,0,0,0,2252,247.62a85.93,85.93,0,0,0,65.34-5.35A79.14,79.14,0,0,0,2358.94,194c7.13-23.1,3.75-48.17-9.49-70.63C2282.34,2.39,2158.1-69.82,2017-69.82c-216,0-391.71,176-391.71,392.43,0,105.43,42.74,201,111.78,271.06L2340,534c.2-.29.41-.55.6-.84"/><path class="cls-14" d="M1758.53,614c5.92,5.16,12,10.09,18.28,14.9A391.6,391.6,0,0,0,2017,711c113,0,215.51-47.67,289.13-132.37A418.91,418.91,0,0,0,2340,534.05l-602.94,59.62c6.92,7,14,13.88,21.45,20.37"/><path class="cls-16" d="M1746.77,106a94.32,94.32,0,0,1-15.25,9.29c-.79.38-1.6.65-2.4,1A98.92,98.92,0,0,1,1599.39,68.5a100.13,100.13,0,0,1,7.46-99.43l.36-.55c.82-1.26,1.52-2.55,2.24-3.85a68,68,0,0,0,7.25-19.26,68.73,68.73,0,0,0-26.83-69.53l-1.08-.74a67.48,67.48,0,0,0-24.87-9.94,68.31,68.31,0,0,0-37.75,3.81,65.7,65.7,0,0,0-30.09,24.25c-46.41,68.81-53,158.17-17.23,233.21,55.22,115.83,194.3,164.78,310,109.12,4.76-2.29,9.37-4.78,13.91-7.35a226.68,226.68,0,0,0,19.69-12.53l-69.32-114.92c-2.06,1.81-4.18,3.55-6.4,5.18"/><path class="cls-16" d="M1718.1-206.37a67,67,0,0,0-49.49,13,66.27,66.27,0,0,0-26,44.61l-.09.8c-3.67,36.47,22.46,70,58.48,74.72a98.33,98.33,0,0,1,77.1,55.78c19.36,40.6,7.64,89.59-24.92,118.24l69.33,114.92a234.21,234.21,0,0,0,18.77-14.78c76.87-67.22,103.32-180,57.36-276.36-34.48-72.33-102-121.28-180.52-130.94"/></g></g></g></svg>